<svg version="1.1" id="Layer_1" xmlns="http://www.w3.org/2000/svg" xmlns:xlink="http://www.w3.org/1999/xlink" x="0px" y="0px"
	 width="100%" viewBox="0 0 1024 1024" enable-background="new 0 0 1024 1024" xml:space="preserve">
<path fill="#000000" opacity="1.000000" stroke="none" 
	d="
M627.857483,446.416901 
	C630.544250,458.873352 632.592834,471.012360 632.064636,483.395996 
	C631.874512,487.852081 633.669434,489.132874 637.907654,489.141205 
	C657.397949,489.179443 676.888062,489.433167 696.377625,489.664154 
	C733.185974,490.100372 765.977783,522.964783 766.119019,559.683960 
	C766.202942,581.511292 766.162720,603.340759 765.950867,625.167053 
	C765.818298,638.821594 763.964233,652.049500 755.056091,663.308105 
	C748.688782,671.355530 740.603577,676.477478 730.666443,678.760620 
	C725.661377,679.910461 724.779175,679.254883 724.846191,673.956848 
	C725.024414,659.863770 724.074280,645.947449 718.006897,632.939453 
	C689.083801,570.929810 618.020996,565.301575 577.643677,600.009094 
	C555.750305,618.828308 544.302246,642.302979 544.060120,671.210999 
	C544.007324,677.521423 543.571228,677.937927 537.113708,677.898438 
	C515.468079,677.766113 493.822296,677.459534 472.177704,677.537964 
	C467.728363,677.554077 466.597595,676.260315 466.574402,671.902161 
	C466.358215,631.240906 441.322754,595.594238 402.526764,583.394470 
	C373.153778,574.157898 344.893646,577.963440 319.597198,596.901001 
	C318.291992,597.878113 317.139832,599.177673 315.325104,599.421448 
	C313.319061,598.186279 314.025940,596.161560 314.022308,594.472107 
	C313.940125,556.315063 313.450806,518.151123 314.018341,480.003052 
	C314.473602,449.402069 325.568787,422.174774 343.638977,397.722839 
	C359.550140,376.192474 379.391052,359.188965 403.391510,347.259460 
	C429.574219,334.245270 457.253357,328.273468 486.539642,330.574982 
	C539.874695,334.766357 580.659424,360.116852 609.886230,404.422394 
	C618.266663,417.126495 623.950745,431.222412 627.857483,446.416901 
M516.263489,522.771790 
	C534.825439,507.168823 542.898376,486.981537 538.147034,463.498474 
	C532.977295,437.947754 517.079407,420.501678 491.071167,414.568787 
	C465.790436,408.801880 443.924103,416.101349 427.771637,436.468628 
	C409.139771,459.962341 409.916382,488.861511 427.275726,511.962708 
	C448.706268,540.481689 487.230621,544.858154 516.263489,522.771790 
z"/>
<path fill="#000000" opacity="1.000000" stroke="none" 
	d="
M682.873901,646.234863 
	C702.521729,679.517761 686.599304,720.236023 650.551453,729.686279 
	C615.787659,738.799988 580.529358,713.088623 580.144836,677.850647 
	C579.860657,651.809326 594.324646,630.475952 617.081299,622.909729 
	C641.347778,614.841614 667.013855,623.471313 681.873718,644.663025 
	C682.160217,645.071716 682.415649,645.502258 682.873901,646.234863 
z"/>
<path fill="#000000" opacity="1.000000" stroke="none" 
	d="
M430.422913,677.969238 
	C430.123077,708.229614 406.785126,730.943115 376.804596,731.419434 
	C350.718567,731.833862 327.200439,714.598145 321.491394,687.855408 
	C313.800964,651.831299 339.584320,622.177368 371.465790,620.284851 
	C398.476868,618.681641 425.369781,637.881836 429.799530,666.043030 
	C430.389740,669.795166 430.233154,673.664673 430.422913,677.969238 
z"/>
<path fill="#000000" opacity="1.000000" stroke="none" 
	d="
M285.149475,406.000000 
	C285.113434,423.503540 285.077087,440.507050 285.041565,457.139252 
	C282.493713,457.709442 281.621643,457.183228 280.878601,456.509827 
	C268.060638,444.893158 254.099167,434.361877 244.379044,419.726410 
	C228.143494,395.280762 227.091660,369.816071 241.001312,344.178436 
	C249.680023,328.182251 263.846954,318.509949 281.205841,313.378998 
	C283.837250,312.601166 285.034912,313.358490 285.126251,316.018799 
	C285.177673,317.517029 285.178864,319.017517 285.178436,320.516968 
	C285.170837,348.844635 285.159637,377.172333 285.149475,406.000000 
z"/>
<path fill="#000000" opacity="1.000000" stroke="none" 
	d="
M331.267090,372.396027 
	C322.324860,376.428284 313.358765,379.711243 307.375580,387.354126 
	C305.226807,386.410156 305.680450,384.879852 305.715668,383.673431 
	C306.064240,371.730743 304.420319,359.697968 306.521332,347.853638 
	C309.140350,333.088959 318.084015,323.127899 331.728302,317.364471 
	C336.308533,315.429779 341.132690,314.074463 345.837646,312.432312 
	C348.102051,311.641968 350.063782,311.830536 350.042023,314.701263 
	C349.947815,327.124908 351.524597,339.656982 348.068573,351.890259 
	C345.495972,360.996674 339.857422,367.696472 331.267090,372.396027 
z"/>
</svg>